# xmcd
#
# Track frame offsets: 
#        150
#        18390
#        33475
#
# Disc length: 775 seconds
#
# Revision: 7
# Processed by: cddbd v1.5.2PL0 Copyright (c) Steve Scherf et al.
# Submitted via: ExactAudioCopy v0.99pb5
#
DISCID=1b030503
DTITLE=Celine Dion - That´s The Way It Is
DYEAR=1999
DGENRE=Pop
TTITLE0=That´s The Way It Is
TTITLE1=I Met An Angel (On Christmas Day)
TTITLE2=My Heart Will Go On (Live)
EXTD=YEAR: 1999 ID3G:   0
EXTT0=
EXTT1=
EXTT2=
PLAYORDER=
